<svg id="Layer_1" data-name="Layer 1" xmlns="http://www.w3.org/2000/svg" viewBox="0 0 480 480"><defs><style>.cls-1{fill:#fff;}</style></defs><title>Artboard 1</title><circle class="cls-1" cx="241" cy="241" r="229"/><path d="M240,0C107.45,0,0,107.45,0,240S107.45,480,240,480,480,372.55,480,240,372.48.15,240,0Zm8.57,69.19L332,35.84a224.49,224.49,0,0,1,27.41,14.78l.22.14a225.29,225.29,0,0,1,24.7,18.11l.67.59q5.26,4.48,10.22,9.26c.42.41.86.8,1.27,1.22q5.21,5.09,10.09,10.48l.8.93c2.86,3.2,5.6,6.51,8.27,9.88.64.8,1.28,1.6,1.9,2.4,2.89,3.74,5.69,7.55,8.33,11.48l-16.63,70.7-81.83,27.28L248.59,150ZM62.44,103.67q.93-1.2,1.89-2.4,3.95-5,8.17-9.78c.3-.34.59-.68.89-1Q78.24,85.07,83.44,80c.4-.39.8-.8,1.21-1.16q4.93-4.75,10.14-9.21l.8-.67a226.15,226.15,0,0,1,24.46-18l.31-.2A224.74,224.74,0,0,1,147.62,36l83.82,33.19V150L152.6,213.05,70.77,185.82l-16.63-70.7C56.8,111.2,59.57,107.4,62.44,103.67ZM52.8,362.76q-3.53-5.38-6.75-11l-.52-.9q-3.2-5.55-6.05-11.29l-.07-.12a222.88,222.88,0,0,1-10.54-24.8v-.08c-1.42-4-2.72-8.1-3.92-12.22l-.43-1.52q-1.65-5.81-3-11.74c-.08-.39-.18-.75-.25-1.14a222.66,222.66,0,0,1-4.23-27.1L65.9,202.29l81.27,27.09,23.59,94.34L132,375.27Zm240.47,94.78c-4,1-8.11,1.85-12.21,2.62l-1.73.31c-3.5.63-7,1.16-10.57,1.6l-2.82.36c-3.29.38-6.61.67-9.94.91-1,.07-2.08.18-3.13.24-4.25.26-8.54.41-12.86.41q-5.94,0-11.8-.31c-.47,0-.93-.08-1.4-.11q-5.22-.3-10.4-.8l-.4-.07a228,228,0,0,1-22.56-3.6L146.12,385l38.14-50.86H295.73l38.77,51.2ZM458.77,288c-.08.38-.18.75-.26,1.14q-1.34,5.93-3,11.74l-.43,1.52c-1.2,4.12-2.5,8.2-3.92,12.22v.08a222.15,222.15,0,0,1-10.54,24.8l-.07.12q-2.87,5.74-6.05,11.29l-.52.9q-3.2,5.6-6.73,10.95L348.34,375.2l-39-51.52,23.57-94.31,81.27-27.09L463,260.89A222.14,222.14,0,0,1,458.77,288Z"/></svg>